<svg width="24" height="21" viewBox="0 0 24 21" fill="none" xmlns="http://www.w3.org/2000/svg">
<path d="M17.4559 5.87915C17.4559 8.73491 15.1409 11.05 12.2851 11.05C9.42936 11.05 7.11431 8.73491 7.11431 5.87915C7.11431 3.02339 9.42936 0.708344 12.2851 0.708344C15.1409 0.708344 17.4559 3.02339 17.4559 5.87915Z" fill="#33363F"/>
<path d="M22.6267 5.87915C22.6267 8.02097 20.8905 9.75725 18.7486 9.75725C16.6068 9.75725 14.8705 8.02097 14.8705 5.87915C14.8705 3.73733 16.6068 2.00104 18.7486 2.00104C20.8905 2.00104 22.6267 3.73733 22.6267 5.87915Z" fill="#33363F"/>
<path d="M9.69975 5.87915C9.69975 8.02097 7.96346 9.75725 5.82164 9.75725C3.67982 9.75725 1.94353 8.02097 1.94353 5.87915C1.94353 3.73733 3.67982 2.00104 5.82164 2.00104C7.96346 2.00104 9.69975 3.73733 9.69975 5.87915Z" fill="#33363F"/>
<path d="M19.4835 17.5135H22.993C23.489 17.5135 23.8699 17.0879 23.7688 16.6022C23.3979 14.821 22.2047 11.0499 18.7487 11.0499C17.6033 11.0499 16.7064 11.4642 16.0056 12.083C17.9547 13.3475 18.9624 15.5618 19.4835 17.5135Z" fill="#33363F"/>
<path d="M8.56471 12.083C7.86395 11.4642 6.96707 11.0499 5.82163 11.0499C2.36568 11.0499 1.17239 14.821 0.801519 16.6022C0.700396 17.0879 1.08126 17.5135 1.57734 17.5135H5.08679C5.60786 15.5618 6.61564 13.3475 8.56471 12.083Z" fill="#33363F"/>
<path d="M12.2852 12.3427C17.4332 12.3427 18.481 17.2631 18.6942 19.2659C18.7432 19.7264 18.3733 20.0989 17.9102 20.0989H6.66015C6.19705 20.0989 5.8271 19.7264 5.87612 19.2659C6.08935 17.2631 7.13707 12.3427 12.2852 12.3427Z" fill="#33363F"/>
</svg>
