<svg width="19" height="21" viewBox="0 0 19 21" fill="none" xmlns="http://www.w3.org/2000/svg">
<path d="M0.644627 6.87403C0.291748 7.64127 0.291748 8.51411 0.291748 10.2598V15.7117C0.291748 18.1361 0.291748 19.3483 1.0449 20.1014C1.77291 20.8294 2.92982 20.8537 5.19583 20.8546V14.4261C5.19583 13.2291 6.16618 12.2587 7.36318 12.2587H11.2203C12.4173 12.2587 13.3877 13.2291 13.3877 14.4261V20.8546C15.6537 20.8537 16.8106 20.8294 17.5386 20.1014C18.2917 19.3483 18.2917 18.1361 18.2917 15.7117V10.2598C18.2917 8.51411 18.2917 7.64127 17.9389 6.87403C17.586 6.1068 16.9233 5.53876 15.5979 4.40268L14.3121 3.30064C11.9164 1.24718 10.7186 0.220459 9.29175 0.220459C7.8649 0.220459 6.66705 1.24718 4.27136 3.30064L2.98564 4.40268C1.66022 5.53876 0.997506 6.1068 0.644627 6.87403Z" fill="#5BAAEF"/>
<path d="M11.6244 20.8546V14.4261C11.6244 14.2029 11.4435 14.022 11.2203 14.022H7.36318C7.14001 14.022 6.9591 14.2029 6.9591 14.4261V20.8546H11.6244Z" fill="#5BAAEF"/>
</svg>
