<svg width="21" height="21" viewBox="0 0 21 21" fill="none" xmlns="http://www.w3.org/2000/svg">
<path d="M10.6446 0C4.99824 0 0.622437 4.15865 0.622437 9.77571C0.622437 12.7137 1.82042 15.2526 3.77042 17.0064C4.10711 17.3116 4.03776 17.4884 4.09502 19.3726C4.09953 19.5046 4.13601 19.6335 4.20129 19.748C4.26656 19.8625 4.35865 19.9592 4.46952 20.0296C4.58039 20.1 4.70666 20.142 4.83734 20.1519C4.96801 20.1619 5.09912 20.1394 5.21921 20.0866C7.35268 19.1398 7.3801 19.065 7.74179 19.1642C13.9228 20.8786 20.6224 16.8922 20.6224 9.77571C20.6224 4.15865 16.2914 0 10.6446 0ZM16.6624 7.52287L13.7188 12.2191C13.6077 12.3957 13.4615 12.5473 13.2895 12.6643C13.1175 12.7813 12.9234 12.8613 12.7193 12.8991C12.5152 12.937 12.3056 12.932 12.1035 12.8844C11.9015 12.8369 11.7113 12.7477 11.545 12.6226L9.20308 10.8562C9.09839 10.7771 8.97105 10.7343 8.84018 10.7343C8.70931 10.7343 8.58197 10.7771 8.47727 10.8562L5.31719 13.2716C4.89542 13.5938 4.343 13.0847 4.62727 12.6348L7.57082 7.93858C7.68194 7.76194 7.82807 7.61034 8.00006 7.49329C8.17204 7.37624 8.36617 7.29626 8.57027 7.25838C8.77437 7.22049 8.98403 7.22551 9.18612 7.27312C9.3882 7.32074 9.57834 7.40991 9.74461 7.53506L12.0857 9.30109C12.1904 9.38022 12.3178 9.423 12.4486 9.423C12.5795 9.423 12.7069 9.38022 12.8115 9.30109L15.9732 6.88814C16.3942 6.56387 16.9466 7.07263 16.6624 7.52287Z" fill="black"/>
</svg>
