<svg width="21" height="21" viewBox="0 0 21 21" fill="none" xmlns="http://www.w3.org/2000/svg">
<path d="M10.6447 0C4.99836 0 0.622559 4.15865 0.622559 9.77571C0.622559 12.7137 1.82054 15.2526 3.77054 17.0064C4.10724 17.3116 4.03788 17.4884 4.09514 19.3726C4.09965 19.5046 4.13613 19.6335 4.20141 19.748C4.26669 19.8625 4.35878 19.9592 4.46964 20.0296C4.58051 20.1 4.70679 20.142 4.83746 20.1519C4.96814 20.1619 5.09924 20.1394 5.21933 20.0866C7.3528 19.1398 7.38022 19.065 7.74191 19.1642C13.923 20.8786 20.6226 16.8922 20.6226 9.77571C20.6226 4.15865 16.2915 0 10.6447 0ZM16.6625 7.52287L13.7189 12.2191C13.6078 12.3957 13.4616 12.5473 13.2896 12.6643C13.1176 12.7813 12.9235 12.8613 12.7194 12.8991C12.5154 12.937 12.3057 12.932 12.1037 12.8844C11.9016 12.8369 11.7114 12.7477 11.5451 12.6226L9.2032 10.8562C9.09851 10.7771 8.97117 10.7343 8.8403 10.7343C8.70943 10.7343 8.58209 10.7771 8.4774 10.8562L5.31732 13.2716C4.89554 13.5938 4.34312 13.0847 4.6274 12.6348L7.57095 7.93858C7.68206 7.76194 7.82819 7.61034 8.00018 7.49329C8.17216 7.37624 8.36629 7.29626 8.57039 7.25838C8.77449 7.22049 8.98415 7.22551 9.18624 7.27312C9.38832 7.32074 9.57846 7.40991 9.74474 7.53506L12.0859 9.30109C12.1906 9.38022 12.3179 9.423 12.4488 9.423C12.5796 9.423 12.707 9.38022 12.8117 9.30109L15.9734 6.88814C16.3943 6.56387 16.9468 7.07263 16.6625 7.52287Z" fill="#5BAAEF"/>
</svg>
