<svg width="21" height="21" viewBox="0 0 21 21" fill="none" xmlns="http://www.w3.org/2000/svg">
<path d="M19.5504 19.7091C20.0285 19.6094 20.3131 19.1104 20.0954 18.6732C19.3929 17.2629 18.204 16.0234 16.6497 15.0958C14.7907 13.9864 12.5129 13.385 10.1697 13.385C7.82645 13.385 5.54871 13.9863 3.6897 15.0958C2.13541 16.0234 0.946458 17.2629 0.243991 18.6732C0.0262109 19.1104 0.310812 19.6094 0.788996 19.7091L3.55112 20.2847C7.91659 21.1945 12.4228 21.1945 16.7882 20.2847L19.5504 19.7091Z" fill="#222222"/>
<path d="M16.0833 6.28863C16.0833 9.55464 13.4357 12.2023 10.1697 12.2023C6.90367 12.2023 4.25605 9.55464 4.25605 6.28863C4.25605 3.02262 6.90367 0.375 10.1697 0.375C13.4357 0.375 16.0833 3.02262 16.0833 6.28863Z" fill="#222222"/>
</svg>
