<svg width="19" height="22" viewBox="0 0 19 22" fill="none" xmlns="http://www.w3.org/2000/svg">
<path fill-rule="evenodd" clip-rule="evenodd" d="M7.58325 0.291656C6.30511 0.291656 5.26897 1.3278 5.26897 2.60594H4.77075C3.19073 2.60594 2.40072 2.60594 1.83322 2.98514C1.58754 3.14929 1.3766 3.36023 1.21245 3.60591C0.833252 4.17341 0.833252 4.96342 0.833252 6.54344V17.2309C0.833252 19.3523 0.833252 20.4129 1.49226 21.0719C2.15127 21.7309 3.21193 21.7309 5.33325 21.7309H14.3333C16.4546 21.7309 17.5152 21.7309 18.1742 21.0719C18.8333 20.4129 18.8333 19.3523 18.8333 17.2309V6.54344C18.8333 4.96342 18.8333 4.17341 18.4541 3.60591C18.2899 3.36023 18.079 3.14929 17.8333 2.98514C17.2658 2.60594 16.4758 2.60594 14.8958 2.60594H14.3975C14.3975 1.3278 13.3614 0.291656 12.0833 0.291656H7.58325ZM7.93682 2.60594C7.93682 2.17989 8.2822 1.83451 8.70825 1.83451H10.9583C11.3843 1.83451 11.7297 2.17989 11.7297 2.60594C11.7297 3.03199 11.3843 3.37737 10.9583 3.37737H8.70825C8.2822 3.37737 7.93682 3.03199 7.93682 2.60594ZM6.45825 9.70951C6.0322 9.70951 5.68682 10.0549 5.68682 10.4809C5.68682 10.907 6.0322 11.2524 6.45825 11.2524H13.2083C13.6343 11.2524 13.9797 10.907 13.9797 10.4809C13.9797 10.0549 13.6343 9.70951 13.2083 9.70951H6.45825ZM6.45825 14.2095C6.0322 14.2095 5.68682 14.5549 5.68682 14.9809C5.68682 15.407 6.0322 15.7524 6.45825 15.7524L10.9583 15.7524C11.3843 15.7524 11.7297 15.407 11.7297 14.9809C11.7297 14.5549 11.3843 14.2095 10.9583 14.2095L6.45825 14.2095Z" fill="#222222"/>
</svg>
