<svg width="44" height="33" viewBox="0 0 44 33" fill="none" xmlns="http://www.w3.org/2000/svg">
<path d="M42.9676 9.625H37.8225L36.3925 6.05C34.923 2.37445 31.4159 0 27.4568 0H16.5427C12.5844 0 9.07642 2.37445 7.60603 6.05L6.17602 9.625H1.0318C0.360626 9.625 -0.131797 10.2558 0.0314844 10.9063L0.54711 12.9688C0.661407 13.4277 1.07391 13.75 1.54742 13.75H3.27219C2.11805 14.758 1.37469 16.2233 1.37469 17.875V22C1.37469 23.3853 1.90406 24.6357 2.74969 25.6034V30.25C2.74969 31.7685 3.98118 33 5.49969 33H8.2497C9.76822 33 10.9997 31.7685 10.9997 30.25V27.5H32.9997V30.25C32.9997 31.7685 34.2312 33 35.7497 33H38.4997C40.0183 33 41.2497 31.7685 41.2497 30.25V25.6034C42.0954 24.6366 42.6247 23.3862 42.6247 22V17.875C42.6247 16.2233 41.8814 14.758 40.7281 13.75H42.4529C42.9264 13.75 43.3389 13.4277 43.4532 12.9688L43.9688 10.9063C44.1312 10.2558 43.6388 9.625 42.9676 9.625ZM12.7124 8.09273C13.3389 6.52695 14.8557 5.5 16.5427 5.5H27.4568C29.1437 5.5 30.6605 6.52695 31.287 8.09273L32.9997 12.375H10.9997L12.7124 8.09273ZM8.2497 21.9828C6.5997 21.9828 5.49969 20.8862 5.49969 19.2414C5.49969 17.5966 6.5997 16.5 8.2497 16.5C9.8997 16.5 12.3747 18.9673 12.3747 20.6121C12.3747 22.257 9.8997 21.9828 8.2497 21.9828ZM35.7497 21.9828C34.0997 21.9828 31.6247 22.257 31.6247 20.6121C31.6247 18.9673 34.0997 16.5 35.7497 16.5C37.3997 16.5 38.4997 17.5966 38.4997 19.2414C38.4997 20.8862 37.3997 21.9828 35.7497 21.9828Z" fill="black"/>
</svg>
